<svg width="40" height="41" viewBox="0 0 40 41" fill="none" xmlns="http://www.w3.org/2000/svg">
<path fill-rule="evenodd" clip-rule="evenodd" d="M39.2532 32.9734C40.157 34.7208 40.2446 36.5582 39.4934 38.0106C38.7434 39.4642 37.276 40.2967 35.4672 40.2967H32.0585C32.0989 39.5892 32.1259 38.8755 32.1259 38.1568C32.1259 37.3519 32.0922 36.5569 32.0428 35.7645L34.2849 35.762C34.8362 35.762 35.2819 35.2633 35.2819 34.6483C35.2819 34.4558 35.2382 34.2771 35.1618 34.1171L20.8713 6.46506C20.7017 6.12883 20.3772 5.90134 20.0056 5.90134C19.6441 5.90134 19.3275 6.11633 19.1523 6.43881L16.8832 10.8298C23.7792 16.6169 28.4151 25.5826 29.0495 35.762C29.0989 36.5532 29.1326 37.3481 29.1326 38.1543C29.1326 38.873 29.1056 39.5855 29.0663 40.2942H17.9341C17.9947 39.5892 18.0295 38.8768 18.0295 38.1543C18.0295 37.3456 17.9869 36.5482 17.9083 35.762C17.3581 30.1598 14.8948 25.1951 11.2671 21.6916L9.70425 24.7139C12.4449 27.5537 14.3154 31.421 14.8241 35.762C14.9161 36.5457 14.9678 37.3431 14.9678 38.1543C14.9678 38.8768 14.9251 39.5917 14.8521 40.2942H4.53279C2.72402 40.2942 1.25657 39.4605 0.506558 38.0068C-0.244571 36.5544 -0.156996 34.7183 0.74683 32.9696L2.86549 28.9274C4.08032 29.6536 5.17165 30.5998 6.10242 31.7197L4.83931 34.1146C4.76408 34.2733 4.71917 34.4533 4.71917 34.6458C4.71917 35.2608 5.16491 35.7582 5.71619 35.7582L10.7215 35.7607C10.3016 33.0896 9.19451 30.6798 7.60917 28.7712C6.67503 27.65 5.5837 26.7013 4.36887 25.9751L9.95799 15.1645C11.1481 15.9057 12.2743 16.7557 13.3274 17.7081C18.1441 22.0591 21.3967 28.4849 21.9862 35.7595H24.9817C24.3709 27.255 20.5322 19.7555 14.8353 14.7908C13.7675 13.8608 12.6369 13.0184 11.449 12.2759L16.2197 3.04902C17.1224 1.30038 18.5034 0.296692 20.0056 0.296692C21.5068 0.296692 22.8866 1.30038 23.7905 3.04902L39.2532 32.9734Z" fill="#FB2D26"/>
</svg>
